<svg id="bd9e156c-4ae5-43bd-909a-1d43618968d1" data-name="Layer 1" xmlns="http://www.w3.org/2000/svg" width="860.3" height="661.8" viewBox="0 0 860.28256 661.79235">
  <rect x="536.2" y="647.3" width="324" height="2.2" fill="#3f3d56" />
  <polygon points="699,653.1 663.8,647.6 678.3,632.4 699,632.4 699,653.1" fill="#a0616a" />
  <path d="M 862.1 780.5 l -34.8 -11.4 a 6.8 6.8 0 0 1 -3.9 -9.4 h 0 a 6.8 6.8 0 0 1 6.5 -3.7 l 7.9 0.5 l 3.1 -1.7 a 1.8 1.8 0 0 1 2.5 2.3 l -2.9 6.9 l 28.9 -2.1 l 1.4 11.4 A 6.8 6.8 0 0 1 862.1 780.5 Z" transform="translate(-169.9,-119.1)" fill="#2f2e41" />
  <path d="M 964.5 754.9 l -36.5 9.7 c 6.7 -14 10.9 -26.3 8.3 -34.5 l 17.2 -2.1 Z" transform="translate(-169.9,-119.1)" fill="#a0616a" />
  <path d="M 962.3 767.1 l -37.8 2.5 a 7 7 0 0 1 -7.4 -7.6 v 0 a 7 7 0 0 1 4.8 -6.1 l 7.8 -2.5 l 2.3 -2.9 a 1.9 1.9 0 0 1 3.3 1.2 l -0.1 7.7 l 27 -13.2 l 5.8 10.4 A 7 7 0 0 1 962.3 767.1 Z" transform="translate(-169.9,-119.1)" fill="#2f2e41" />
  <circle cx="672.8" cy="185.7" r="25.5" fill="#a0616a" />
  <path d="M 883.1 338 l -29.5 22.3 c -4.8 -18.2 -10.5 -31.2 -18 -34.5 L 865.1 308.5 Z" transform="translate(-169.9,-119.1)" fill="#a0616a" />
  <polygon points="789.5,608.6 764.3,619.4 706.1,482.1 701.4,634.8 676.2,633.4 648.2,394 650.4,380.3 745.6,401.5 747.1,478.5 789.5,608.6" fill="#2f2e41" />
  <path d="M 813.7 297.4 s 16.5 -15.1 21.6 -8.6 s 6.5 7.9 9.3 7.9 s 10.1 7.9 10.1 7.9 s 3.6 -7.2 7.9 -1.4 S 867.7 317.5 867.7 317.5 s 15.8 -36.7 -12.2 -43.9 S 807.3 288.7 813.7 297.4 Z" transform="translate(-169.9,-119.1)" fill="#2f2e41" />
  <path d="M 922 532.1 c -13.7 -6 -14.1 -1.3 -33.8 6.5 c -24.8 3.1 -40.6 3.5 -48.5 -6.8 c -3.2 -20.5 -5.9 -40.1 -7.5 -58.8 q -0.5 -5.8 -0.9 -11.4 c -2.9 -43.9 0.6 -82.1 16.7 -112.8 l 28.8 -21.6 l 9.4 6.8 c 22.4 16.3 18.9 41.3 21.9 68.8 Z" transform="translate(-169.9,-119.1)" fill="#e6e6e6" />
  <polygon points="665.1,406.6 650,393.6 651.4,380.7 665.1,380.7 665.1,406.6" fill="#a0616a" />
  <path d="M 874.8 395.9 s 42.5 55.4 12.1 80.5 s -47.3 41 -47.3 41 S 841.4 408.8 874.8 395.9 Z" transform="translate(-169.9,-119.1)" opacity="0.2" />
  <path d="M 858.3 451.2 L 832.1 473 q -0.5 -5.8 -0.9 -11.4 l 17.7 -79.4 Z" transform="translate(-169.9,-119.1)" opacity="0.2" />
  <path d="M 839.3 517 L 818.4 500.5 l 27.3 -69 l 0.6 -72 a 16.4 16.4 0 0 1 10.9 -15.3 h 0 a 16.4 16.4 0 0 1 21.9 15.2 l 1.1 83.5 Z" transform="translate(-169.9,-119.1)" fill="#e6e6e6" />
  <path d="M 169.9 669.3 V 158.5 a 8.4 8.4 0 0 1 8.4 -8.4 H 646.5 a 8.4 8.4 0 0 1 8.4 8.4 V 669.3 a 8.4 8.4 0 0 1 -8.4 8.4 H 178.2 A 8.4 8.4 0 0 1 169.9 669.3 Z m 8.4 -515.8 a 5 5 0 0 0 -5 5 V 669.3 a 5 5 0 0 0 5 5 H 646.5 a 5 5 0 0 0 5 -5 V 158.5 a 5 5 0 0 0 -5 -5 Z" transform="translate(-169.9,-119.1)" fill="#e6e6e6" />
  <path id="feda1070-6288-4949-b833-330f4749d65f" data-name="Path 40" d="M 495.7 202.1 a 6.6 6.6 0 0 1 0 13.3 H 329 a 6.6 6.6 0 1 1 -0.2 -13.3 q 0.1 0 0.2 0 Z" transform="translate(-169.9,-119.1)" fill="#3f3d56" />
  <path d="M 291.3 200.3 a 1.3 1.3 0 0 1 0 1.8 l -5.6 5.6 h 13.8 a 1.3 1.3 0 1 1 0 2.6 h -13.8 l 5.6 5.6 a 1.3 1.3 0 1 1 -1.8 1.8 l -7.8 -7.8 a 1.3 1.3 0 0 1 0 -1.8 l 7.8 -7.8 A 1.3 1.3 0 0 1 291.3 200.3 Z" transform="translate(-169.9,-119.1)" fill="#e6e6e6" />
  <path d="M 533.5 200.3 a 1.3 1.3 0 0 0 0 1.8 l 5.6 5.6 h -13.8 a 1.3 1.3 0 1 0 0 2.6 h 13.8 l -5.6 5.6 a 1.3 1.3 0 1 0 1.8 1.8 l 7.8 -7.8 a 1.3 1.3 0 0 0 0 -1.8 l -7.8 -7.8 A 1.3 1.3 0 0 0 533.5 200.3 Z" transform="translate(-169.9,-119.1)" fill="#e6e6e6" />
  <path d="M 319.8 588.1 a 23.8 23.8 0 0 0 0 47.7 H 505 a 23.8 23.8 0 0 0 0 -47.7 Z" transform="translate(-169.9,-119.1)" fill="#e6e6e6" />
  <path d="M 609 157.4 a 38.3 38.3 0 1 1 38.3 38.3 A 38.3 38.3 0 0 1 609 157.4 Z" transform="translate(-169.9,-119.1)" fill="#f909a0" />
  <path d="M 632.2 153.6 h 11.3 V 142.3 a 3.8 3.8 0 1 1 7.6 0 V 153.6 h 11.3 a 3.8 3.8 0 0 1 0 7.6 H 651 v 11.3 a 3.8 3.8 0 0 1 -7.6 0 V 161.2 H 632.2 a 3.8 3.8 0 1 1 0 -7.6 Z" transform="translate(-169.9,-119.1)" fill="#ffffff" />
  <rect x="257.8" y="393.6" width="353.4" height="2.2" transform="translate(-321.6,245.7) rotate(-39.3)" fill="#e6e6e6" />
  <rect x="433.4" y="218.2" width="2.2" height="354.2" transform="translate(-316.7,360.1) rotate(-50.5)" fill="#e6e6e6" />
  <path d="M 293.4 502.2 V 286.5 a 7.8 7.8 0 0 1 7.8 -7.8 h 266 a 7.8 7.8 0 0 1 7.8 7.8 V 502.2 a 7.8 7.8 0 0 1 -7.8 7.8 H 301.2 A 7.8 7.8 0 0 1 293.4 502.2 Z m 7.8 -221.3 a 5.6 5.6 0 0 0 -5.6 5.6 V 502.2 a 5.6 5.6 0 0 0 5.6 5.6 h 266 a 5.6 5.6 0 0 0 5.6 -5.6 V 286.5 a 5.6 5.6 0 0 0 -5.6 -5.6 Z" transform="translate(-169.9,-119.1)" fill="#3f3d56" />
  <path d="M 249.8 541.3 V 325.6 a 7.8 7.8 0 0 1 7.8 -7.8 h 266 a 7.8 7.8 0 0 1 7.8 7.8 V 541.3 a 7.8 7.8 0 0 1 -7.8 7.8 H 257.6 A 7.8 7.8 0 0 1 249.8 541.3 Z" transform="matrix(1,0,0,1,-169.9,-119.1)" fill="#f909a0" />
  <path d="M 360.2 496.1 H 496 a 2.8 2.8 0 0 0 0.5 0 L 432.3 384.8 a 4.5 4.5 0 0 0 -7.8 0 L 381.4 459.4 l -2.1 3.6 Z" transform="translate(-169.9,-119.1)" fill="#ffffff" />
  <polygon points="190.4,377 236.8,377 214,343.9 212.4,341.5 211.5,340.3 209.5,343.9 190.4,377" opacity="0.2" style="isolation: isolate" />
  <path d="M 284.6 496.1 H 402.1 l -22.8 -33.1 l -1.6 -2.4 l -29.7 -43.1 c -1.9 -2.8 -6.6 -3 -8.9 -0.5 a 5.4 5.4 0 0 0 -0.4 0.5 Z" transform="translate(-169.9,-119.1)" fill="#ffffff" />
  <circle cx="203.3" cy="271.9" r="20.1" fill="#ffffff" />
  <rect x="492.3" y="333.4" width="24.6" height="24.6" transform="translate(839.3,572.4) rotate(-180)" fill="#3f3d56" /></svg>
